HIERARCHY
ROOT SpineBase
{
  OFFSET 0.000000 0.000000 0.000000
  CHANNELS 6 Xposition Yposition Zposition Zrotation Xrotation Yrotation
  JOINT SpineMid
  {
    OFFSET 0.000000 31.633666 0.000000
    CHANNELS 3 Zrotation Xrotation Yrotation
    JOINT SpineShoulder
    {
      OFFSET 0.034570 23.482667 -0.745249
      CHANNELS 3 Zrotation Xrotation Yrotation
      JOINT Neck
      {
        OFFSET 0.036698 7.756326 -0.569136
        CHANNELS 3 Zrotation Xrotation Yrotation
        JOINT Head
        {
          OFFSET -5.361401 14.347029 -0.604441
          CHANNELS 3 Zrotation Xrotation Yrotation
          End Site
          {
            OFFSET 0 0 0
          }
        }
      }
      JOINT ShoulderLeft
      {
        OFFSET -17.279889 -6.143953 7.060115
        CHANNELS 3 Zrotation Xrotation Yrotation
        JOINT ElbowLeft
        {
          OFFSET -1.812882 -27.552561 0.784429
          CHANNELS 3 Zrotation Xrotation Yrotation
          JOINT WristLeft
          {
            OFFSET 1.024250 -21.867928 -9.325757
            CHANNELS 3 Zrotation Xrotation Yrotation
            JOINT HandLeft
            {
              OFFSET 1.621211 -5.088288 -2.143664
              CHANNELS 3 Zrotation Xrotation Yrotation
              JOINT HandTipLeft
              {
                OFFSET 0.960344 -6.769507 -5.562360
                CHANNELS 3 Zrotation Xrotation Yrotation
                End Site
                {
                  OFFSET 0 0 0
                }
              }
              JOINT ThumbLeft
              {
                OFFSET -2.704832 -0.141681 -3.125640
                CHANNELS 3 Zrotation Xrotation Yrotation
                End Site
                {
                  OFFSET 0 0 0
                }
              }
            }
          }
        }
      }
      JOINT ShoulderRight
      {
        OFFSET 13.769663 -3.391471 -9.340688
        CHANNELS 3 Zrotation Xrotation Yrotation
        JOINT ElbowRight
        {
          OFFSET 4.701683 -25.737637 -4.192674
          CHANNELS 3 Zrotation Xrotation Yrotation
          JOINT WristRight
          {
            OFFSET -4.450434 -22.866857 -5.666854
            CHANNELS 3 Zrotation Xrotation Yrotation
            JOINT HandRight
            {
              OFFSET -2.637492 -6.134595 -0.557057
              CHANNELS 3 Zrotation Xrotation Yrotation
              JOINT HandTipRight
              {
                OFFSET -1.412789 -7.075671 -1.739940
                CHANNELS 3 Zrotation Xrotation Yrotation
                End Site
                {
                  OFFSET 0 0 0
                }
              }
              JOINT ThumbRight
              {
                OFFSET 1.415962 -2.584037 -2.761824
                CHANNELS 3 Zrotation Xrotation Yrotation
                End Site
                {
                  OFFSET 0 0 0
                }
              }
            }
          }
        }
      }
    }
  }
  JOINT HipLeft
  {
    OFFSET -6.775606 0.522181 -0.501071
    CHANNELS 3 Zrotation Xrotation Yrotation
    JOINT KneeLeft
    {
      OFFSET 1.460084 -32.769504 -17.953688
      CHANNELS 3 Zrotation Xrotation Yrotation
      JOINT AnkleLeft
      {
        OFFSET 7.166299 -36.210562 24.056910
        CHANNELS 3 Zrotation Xrotation Yrotation
        JOINT FootLeft
        {
          OFFSET -3.507490 -2.012920 -11.207574
          CHANNELS 3 Zrotation Xrotation Yrotation
          End Site
          {
            OFFSET 0 0 0
          }
        }
      }
    }
  }
  JOINT HipRight
  {
    OFFSET 7.527729 1.130628 -6.704959
    CHANNELS 3 Zrotation Xrotation Yrotation
    JOINT KneeRight
    {
      OFFSET 2.304926 -35.377791 -11.523496
      CHANNELS 3 Zrotation Xrotation Yrotation
      JOINT AnkleRight
      {
        OFFSET 9.132133 -39.383954 21.294871
        CHANNELS 3 Zrotation Xrotation Yrotation
        JOINT FootRight
        {
          OFFSET -2.024710 -6.048786 -4.504736
          CHANNELS 3 Zrotation Xrotation Yrotation
          End Site
          {
            OFFSET 0 0 0
          }
        }
      }
    }
  }
}
MOTION
Frames: 12
Frame Time: 0.033333
-36.255466 79.679902 338.659663 -0.000000 0.000000 23.448171 -0.000000 0.000000 -23.448171 -0.000000 0.000000 0.000000 -0.000000 0.000000 0.000000 0.000000 0.000000 0.000000 -0.000000 0.000000 0.000000 -0.000000 0.000000 0.000000 -0.000000 0.000000 0.000000 -0.000000 0.000000 0.000000 0.000000 0.000000 0.000000 0.000000 0.000000 0.000000 -0.000000 0.000000 0.000000 -0.000000 0.000000 0.000000 -0.000000 0.000000 0.000000 -0.000000 0.000000 0.000000 0.000000 0.000000 0.000000 0.000000 0.000000 0.000000 -0.000000 0.000000 -23.448171 -0.000000 0.000000 0.000000 -0.000000 0.000000 0.000000 0.000000 0.000000 0.000000 -0.000000 0.000000 -23.448171 -0.000000 0.000000 0.000000 -0.000000 0.000000 0.000000 0.000000 0.000000 0.000000
-36.227753 79.671724 338.644584 0.034596 0.017650 23.409107 -0.038761 -0.002453 -23.409113 -0.000000 0.000000 0.000000 -0.000000 0.000000 0.000000 0.000000 0.000000 0.000000 -0.000000 0.000000 0.000000 -0.000000 0.000000 0.000000 0.951529 1.351223 0.018299 -1.920462 -0.802744 0.812150 0.000000 0.000000 0.000000 0.000000 0.000000 0.000000 -0.000000 0.000000 0.000000 -0.000000 0.000000 0.000000 1.389537 -0.322374 0.016416 -1.805733 -1.367565 0.428709 0.000000 0.000000 0.000000 0.000000 0.000000 0.000000 -0.038761 -0.002453 -23.409113 -0.000000 0.000000 0.000000 1.145000 -3.562513 -0.160747 0.000000 0.000000 0.000000 -0.038761 -0.002453 -23.409113 -0.000000 0.000000 0.000000 -1.272437 4.966879 -0.637772 0.000000 0.000000 0.000000
-36.190887 79.665765 338.639369 0.065911 0.044938 23.334709 -0.078320 -0.015155 -23.334745 -0.000000 0.000000 0.000000 -0.000000 0.000000 0.000000 0.000000 0.000000 0.000000 -0.000000 0.000000 0.000000 -0.000000 0.000000 0.000000 1.689973 2.415083 0.021653 -3.461070 -1.383224 1.440226 0.000000 0.000000 0.000000 0.000000 0.000000 0.000000 -0.000000 0.000000 0.000000 -0.000000 0.000000 0.000000 2.387700 -0.606315 0.057005 -3.161622 -2.488936 0.768499 0.000000 0.000000 0.000000 0.000000 0.000000 0.000000 -0.078320 -0.015155 -23.334745 -0.000000 0.000000 0.000000 2.133677 -6.640603 -0.268960 0.000000 0.000000 0.000000 -0.078320 -0.015155 -23.334745 -0.651500 1.315666 -0.040007 -1.626353 7.605636 -1.047364 0.000000 0.000000 0.000000
-36.144870 79.662027 338.644017 0.093951 0.081860 23.225160 -0.118618 -0.038177 -23.225267 -0.000000 0.000000 0.000000 -0.000000 0.000000 0.000000 0.000000 0.000000 0.000000 0.828988 0.559411 -0.017264 -0.828859 -0.559602 0.009169 2.212076 3.187017 0.021714 -4.556962 -1.758895 1.865196 0.000000 0.000000 0.000000 0.000000 0.000000 0.000000 -0.000000 0.000000 0.000000 0.643232 0.491750 -0.257881 2.442523 -1.344156 0.394984 -4.160467 -3.362339 1.025041 0.000000 0.000000 0.000000 0.000000 0.000000 0.000000 -0.118618 -0.038177 -23.225267 -0.000000 0.000000 0.000000 2.918051 -9.070746 -0.351015 0.000000 0.000000 0.000000 -0.118618 -0.038177 -23.225267 -0.913107 1.805302 -0.061337 -2.138819 10.092259 -1.298212 0.000000 0.000000 0.000000
-36.089700 79.660508 338.658527 0.118721 0.128417 23.080605 -0.159561 -0.071596 -23.080837 -0.000000 0.000000 0.000000 -0.000000 0.000000 0.000000 0.000000 0.000000 0.000000 1.022692 0.632390 -0.018150 -1.022554 -0.632614 0.006861 2.514344 3.662928 0.027054 -5.156221 -1.945198 2.072212 0.000000 0.000000 0.000000 0.000000 0.000000 0.000000 -0.000000 0.000000 0.000000 0.762801 0.618869 -0.313593 2.767676 -1.706924 0.534624 -4.864690 -3.989278 1.203183 0.000000 0.000000 0.000000 0.000000 0.000000 0.000000 0.532305 -0.487299 -23.520517 -1.169917 -0.564999 0.062482 3.891679 -10.036081 -0.092762 0.000000 0.000000 0.000000 -0.039782 -0.982562 -23.283900 -1.601944 2.948468 0.137554 -2.501237 11.788510 -1.413131 0.000000 0.000000 0.000000
-36.025378 79.661211 338.682901 0.140226 0.184612 22.901149 -0.201014 -0.115491 -22.901578 -0.000000 0.000000 0.000000 -0.402106 -0.883401 -0.350514 0.000000 0.000000 0.000000 1.176249 0.649285 -0.015911 -1.176144 -0.649475 0.002579 2.592795 3.838074 0.043009 -5.228357 -1.951871 2.054661 0.000000 0.000000 0.000000 0.000000 0.000000 0.000000 -0.000000 0.000000 0.000000 0.833799 0.727212 -0.353405 2.927894 -2.041811 0.670959 -5.316041 -4.372488 1.306643 0.000000 0.000000 0.000000 0.000000 0.000000 0.000000 0.585423 -0.626409 -23.409876 -1.375822 -0.554336 0.070758 4.255629 -10.791363 -0.141732 0.000000 0.000000 0.000000 -0.087486 -1.156709 -23.126498 -1.800424 3.285249 0.137048 -2.739247 12.758787 -1.412888 0.000000 0.000000 0.000000
-35.936027 79.664247 338.714191 0.164231 0.252458 22.667343 -0.248839 -0.169665 -22.668073 -0.000000 0.000000 0.000000 -0.581276 -1.075468 -0.432500 0.000000 0.000000 0.000000 1.327997 0.649976 -0.012501 -1.327941 -0.650092 -0.002565 2.153815 3.005432 -0.006101 -3.728653 -2.135368 1.231537 0.000000 0.000000 0.000000 0.000000 0.000000 0.000000 -0.000000 0.000000 0.000000 1.066352 0.800751 -0.427602 2.478903 -2.472530 0.927638 -5.602279 -4.495421 1.353816 0.000000 0.000000 0.000000 0.000000 0.000000 0.000000 0.569559 -0.809192 -23.222612 -1.531786 -0.394595 0.080378 4.503336 -11.299281 -0.261492 0.000000 0.000000 0.000000 -0.229333 -1.171575 -22.859683 -1.726274 3.450358 0.124972 -2.989142 13.963698 -1.582046 0.000000 0.000000 0.000000
-35.839792 79.669753 338.758910 0.182449 0.339835 22.379539 -0.298099 -0.244771 -22.380717 -0.000000 0.000000 0.000000 -0.755662 -1.322263 -0.535757 0.000000 0.000000 0.000000 1.424486 0.533720 -0.001196 -1.424537 -0.533585 -0.012073 1.758594 2.141350 -0.090311 -2.116622 -0.621184 0.521980 0.000000 0.000000 0.000000 0.000000 0.000000 0.000000 -0.000000 0.000000 0.000000 1.037777 0.889085 -0.438209 2.284332 -3.200529 1.254062 -5.375689 -3.564130 1.041177 0.000000 0.000000 0.000000 0.000000 0.000000 0.000000 0.544787 -1.007684 -22.975636 -1.681048 -0.229323 0.084018 4.427423 -10.811842 -0.407345 0.000000 0.000000 0.000000 -0.332810 -1.325633 -22.571280 -1.755253 3.485286 0.083355 -2.917843 13.562581 -1.434488 0.000000 0.000000 0.000000
-35.749103 79.676255 338.815606 0.194535 0.428187 22.073930 -0.341194 -0.323690 -22.075620 -0.000000 0.000000 0.000000 -0.936093 -1.532467 -0.626219 0.000000 0.000000 0.000000 1.421333 0.337737 0.014069 -1.421441 -0.337284 -0.022442 1.525371 0.331005 -0.538666 -2.312679 -0.451661 1.161454 0.000000 0.000000 0.000000 0.000000 0.000000 0.000000 -0.000000 0.000000 0.000000 0.929179 0.951910 -0.423056 2.326355 -3.886756 1.537396 -4.759889 -3.547991 0.783488 0.000000 0.000000 0.000000 0.000000 0.000000 0.000000 0.484447 -1.215186 -22.691508 -1.786443 0.081860 0.098589 4.026800 -9.482926 -0.552649 0.000000 0.000000 0.000000 -0.386605 -1.482960 -22.276233 -1.846019 3.343614 0.002314 -2.260236 12.003892 -1.311397 0.000000 0.000000 0.000000
-35.677758 79.682330 338.871627 0.194645 0.509712 21.769433 -0.369810 -0.401167 -21.771594 -0.000000 0.000000 0.000000 -1.133574 -1.722388 -0.710662 0.000000 0.000000 0.000000 1.357247 0.091771 0.031543 -1.357299 -0.090998 -0.033708 1.033411 1.330636 -0.023221 -2.997767 -2.177587 1.444880 0.000000 0.000000 0.000000 0.000000 0.000000 0.000000 -0.000000 0.000000 0.000000 0.600710 1.100171 -0.368261 2.379507 -3.830626 1.410913 -4.307309 -3.261292 0.692180 0.000000 0.000000 0.000000 0.000000 0.000000 0.000000 0.513510 -1.422506 -22.443830 -1.984737 0.238053 0.107740 3.371930 -7.143368 -0.603963 0.000000 0.000000 0.000000 -0.369810 -0.401167 -21.771594 -1.142414 1.554404 -0.244131 -2.407509 9.398491 -0.483162 0.000000 0.000000 0.000000
-35.624109 79.690783 338.941417 0.189311 0.564925 21.603960 -0.384021 -0.455531 -21.606420 -0.000000 0.000000 0.000000 -1.315002 -1.855188 -0.772805 0.000000 0.000000 0.000000 1.303560 -0.095263 0.044498 -1.303487 0.096251 -0.042320 0.691481 5.843490 1.501571 -4.537898 -5.115885 1.187867 0.000000 0.000000 0.000000 0.000000 0.000000 0.000000 -0.000000 0.000000 0.000000 0.326841 1.259247 -0.328965 2.135560 -3.470092 1.166500 -4.450908 -2.532392 0.758335 0.000000 0.000000 0.000000 0.000000 0.000000 0.000000 0.575292 -1.453930 -22.307678 -2.105083 0.233880 0.107338 2.434844 -4.054778 -0.569961 0.000000 0.000000 0.000000 -0.415488 -1.324044 -21.755240 -1.227568 1.801788 -0.105240 -1.450334 6.037023 -0.187279 0.000000 0.000000 0.000000
-35.587880 79.701385 339.019881 0.177553 0.588643 21.551658 -0.381383 -0.482260 -21.554176 -0.000000 0.000000 0.000000 -1.440466 -1.912847 -0.802819 0.000000 0.000000 0.000000 1.236945 -0.246630 0.054143 -0.831974 1.399247 -0.172303 -1.914030 9.724895 4.185434 -3.938884 -6.822187 -0.132312 0.000000 0.000000 0.000000 0.000000 0.000000 0.000000 -0.000000 0.000000 0.000000 0.213472 1.073303 -0.263282 1.438357 -1.610237 0.383064 -4.407180 -0.950280 0.890337 0.000000 0.000000 0.000000 0.000000 0.000000 0.000000 0.442782 -1.778486 -22.261682 -2.054170 0.394124 0.111947 1.202125 -0.192712 -0.405409 0.000000 0.000000 0.000000 -0.302642 -1.665645 -21.788639 -1.397921 1.902068 -0.020670 -4.776385 6.190860 2.266413 0.000000 0.000000 0.000000
